<svg width="139" height="136" viewBox="0 0 139 136" fill="none" xmlns="http://www.w3.org/2000/svg">
<path d="M38.8694 48.8709C43.4937 48.1462 44.6365 42.1693 43.0159 37.3552C42.2682 35.2635 40.9515 33.4221 39.2139 32.0383C37.4764 30.6544 35.387 29.783 33.1811 29.5222C22.5876 27.7932 14.2655 38.1407 15.7816 50.8373C17.7214 67.0289 30.0612 74.9627 41.8705 79.295C47.6792 81.4294 59.273 82.4421 59.0239 92.3181C58.8623 98.5485 53.2641 99.8564 49.0965 99.8447C46.3145 99.8298 42.4634 98.4317 42.8266 94.114C43.1897 89.7963 48.4418 88.6224 46.7474 93.4228C48.2189 93.6433 49.685 93.8797 51.1564 94.1002L51.0049 93.1093C50.437 89.4599 45.7826 91.0268 46.3506 94.6761L46.5074 95.651C46.5628 96.1564 46.7833 96.6294 47.1349 96.9965C47.4865 97.3637 47.9495 97.6046 48.452 97.6818C48.9544 97.759 49.4683 97.6682 49.9139 97.4235C50.3595 97.1788 50.7119 96.7938 50.9164 96.3284C52.2402 92.5948 52.8995 87.2745 49.3871 84.8524C45.8748 82.4302 41.4572 84.9452 39.4988 88.5044C38.405 90.599 37.9227 92.9591 38.1072 95.3148C38.2917 97.6706 39.1355 99.9268 40.542 101.826C43.9684 106.278 49.6119 106.122 54.1819 104.971C56.6302 104.493 58.864 103.251 60.5623 101.424C62.2607 99.5967 63.3361 97.2783 63.6342 94.8016C64.1089 92.2015 63.9296 89.5242 63.1126 87.0106C62.2956 84.4969 60.8665 82.2258 58.9539 80.4016C54.4733 76.3988 48.3427 75.6135 43.1367 73.6963C36.0586 71.1064 28.3228 67.5535 23.9086 59.9692C19.8528 52.965 18.1314 41.3721 25.5921 36.5265C26.8518 35.765 28.2625 35.2876 29.7257 35.1277C31.1889 34.9679 32.6695 35.1294 34.0638 35.601C35.4564 35.9733 36.7067 36.7515 37.6556 37.8365C38.0939 38.3898 39.5114 42.9591 38.8828 43.0885C35.8514 43.5591 35.8328 49.3576 38.9014 48.8815L38.8694 48.8709Z" fill="#E5A920"/>
<path d="M109.219 21.4969L79.1617 21.6192L69.5635 21.6573L39.5111 21.7636C38.6117 21.9318 37.7993 22.4088 37.2141 23.1122C36.629 23.8156 36.3078 24.7013 36.3061 25.6163C36.3044 26.5312 36.6223 27.4181 37.2049 28.1237C37.7874 28.8292 38.5981 29.3092 39.4969 29.4807L39.8539 29.4745C39.7836 36.6163 42.0719 43.5818 46.3641 49.2904C49.4023 53.2681 53.2545 56.5516 57.6632 58.9213C64.2262 62.3171 68.6297 69.8801 68.6443 78.5297L68.6509 79.0999C68.7293 84.538 66.9266 89.8362 63.5478 94.098L59.8169 98.6153C58.18 100.714 57.3198 103.315 57.3823 105.975L69.837 105.888L79.4352 105.85L91.9859 105.795C92.0091 103.137 91.1062 100.553 89.4322 98.4886L85.6007 93.9727C82.1777 89.7392 80.3324 84.4477 80.3808 79.0037L80.3688 78.4495C80.3331 69.8638 84.6751 62.2648 91.2117 58.8176C95.6048 56.4154 99.4318 53.099 102.434 49.0923C106.731 43.336 108.986 36.3113 108.843 29.1295V29.1295L109.194 29.1393C110.099 28.9732 110.917 28.4946 111.505 27.7871C112.093 27.0796 112.414 26.1881 112.412 25.2681C112.41 24.3481 112.085 23.4581 111.493 22.7533C110.902 22.0485 110.082 21.5737 109.177 21.4117L109.219 21.4969Z" fill="#E5A920"/>
<path d="M70.0039 62.826C68.1944 59.2808 63.5427 52.7363 61.4402 49.2184C58.4548 43.8764 56.7807 37.9018 56.5557 31.7864C56.5113 31.0084 109.403 30.0075 109.402 29.2081L56.4757 29.4523L56.2093 29.4529C54.8609 29.4507 53.7644 27.7211 53.7595 25.5894C53.7546 23.4576 54.8271 21.7178 56.1755 21.72L39.4519 21.7798C38.5628 21.9629 37.7646 22.4484 37.1931 23.1538C36.6216 23.8591 36.3122 24.7406 36.3174 25.6484C36.3226 26.5561 36.6422 27.4341 37.2218 28.1328C37.8013 28.8315 38.6051 29.3078 39.4962 29.4807L39.8533 29.4745C39.783 36.6163 42.0713 43.5817 46.3634 49.2903C49.4016 53.2681 53.2538 56.5515 57.6626 58.9213C64.2256 62.3171 68.6291 69.88 68.6436 78.5297L68.6503 79.0999C68.7287 84.538 66.9259 89.8362 63.5472 94.098L59.8163 98.6152C58.1794 100.714 57.3192 103.315 57.3817 105.975L69.8258 105.92C70.1865 101.8 70.8054 97.7063 71.6789 93.6636C71.6789 93.6636 73.0231 68.6708 70.0039 62.826Z" fill="#C68D1A"/>
<path d="M110.075 48.5842C105.453 47.9073 104.315 41.9037 105.833 37.0984C106.565 34.9889 107.875 33.1273 109.613 31.7251C111.351 30.323 113.447 29.4367 115.664 29.1669C126.276 27.3518 134.64 37.6451 133.225 50.3483C131.413 66.5593 119.136 74.5869 107.326 79.0588C101.527 81.2412 89.9434 82.3444 90.2646 92.2137C90.4761 98.4433 96.0909 99.7148 100.232 99.6467C103.014 99.6083 106.762 98.2567 106.454 93.8766C106.145 89.4966 100.792 88.4536 102.535 93.2194L98.1294 93.9277L98.2764 92.9468C98.8169 89.2736 103.473 90.8137 102.916 94.4817L102.77 95.4626C102.727 95.9721 102.515 96.4526 102.168 96.8278C101.821 97.2031 101.358 97.4515 100.853 97.5335C100.349 97.6155 99.8311 97.5265 99.3829 97.2805C98.9347 97.0346 98.5816 96.6459 98.3797 96.1762C97.0228 92.4434 96.3284 87.1369 99.8029 84.6827C103.277 82.2285 107.755 84.7923 109.756 88.2412C110.877 90.3265 111.39 92.6847 111.236 95.0473C111.082 97.4098 110.268 99.6817 108.886 101.604C105.507 106.078 99.8572 105.984 95.2766 104.86C92.825 104.401 90.5819 103.177 88.8694 101.363C87.157 99.5497 86.0634 97.2402 85.7458 94.7663C85.2402 92.1654 85.3937 89.4794 86.1922 86.953C86.9906 84.4266 88.4087 82.1403 90.3171 80.3024C94.7579 76.2684 100.815 75.3965 106.082 73.4818C113.137 70.8275 120.846 67.2177 125.199 59.5867C129.195 52.548 130.837 40.9314 123.327 36.1575C122.062 35.4036 120.648 34.9351 119.183 34.7847C117.718 34.6343 116.238 34.8058 114.846 35.287C113.441 35.705 112.189 36.5248 111.244 37.6455C110.829 38.2007 109.364 42.7927 110.057 42.8977C113.106 43.3384 113.173 49.1473 110.091 48.6961L110.075 48.5842Z" fill="#E5A920"/>
<path d="M70.0539 35.6834C70.1755 35.0055 70.0718 34.3065 69.7586 33.6932C69.4453 33.0798 68.9398 32.586 68.3194 32.2872C68.1082 32.1887 67.8729 32.1541 67.6423 32.1875V32.1875C66.8967 32.4024 63.4842 34.025 62.775 36.1691C62.4977 36.0906 62.2016 36.1121 61.9384 36.2296V36.2296C61.1204 36.7676 60.4188 37.4643 59.875 38.2785C59.3313 39.0927 58.9565 40.0077 58.773 40.9694C58.5774 41.0006 58.3927 41.0797 58.2352 41.1999C58.1714 41.2368 58.114 41.2837 58.065 41.3388C57.5597 42.098 57.222 42.9563 57.0743 43.8562C56.9265 44.7562 56.9722 45.6773 57.2083 46.5583C57.0434 46.6726 56.904 46.8199 56.7989 46.9909L56.746 47.1509C56.5772 48.048 56.6046 48.971 56.8265 49.8564C57.0484 50.7419 57.4595 51.5688 58.0315 52.2802C57.9739 52.4026 57.9313 52.5315 57.9045 52.6642L57.8622 52.7922C57.8303 52.8582 57.8072 52.9281 57.7934 53.0002C58.0253 53.9515 58.4495 54.8453 59.0397 55.6267C59.6299 56.408 60.3736 57.0604 61.2253 57.5436L61.1565 57.7517C61.1303 57.8018 61.1124 57.8558 61.1036 57.9116C61.1131 58.0339 61.1459 58.1533 61.2003 58.2632V58.2632C62.5719 60.1167 64.6027 61.3729 66.8736 61.7729C67.0336 61.8258 67.22 61.7987 67.3959 61.8037C68.0916 61.8326 68.7805 61.6576 69.3781 61.3002C69.9757 60.9428 70.4558 60.4186 70.7595 59.7921C70.9671 59.6357 71.1531 59.4525 71.3125 59.2472C71.7367 58.8161 72.024 58.2693 72.1383 57.6755C72.2527 57.0816 72.1889 56.4672 71.955 55.9095C71.3146 54.7836 70.4131 53.828 69.3265 53.1229L69.2305 53.0912C69.0489 52.9104 68.816 52.79 68.5635 52.7463C68.5192 52.7378 68.4762 52.7235 68.4355 52.7039C68.2004 51.8469 67.82 51.0367 67.3109 50.3083C67.1931 50.0682 67.0048 49.8697 66.7713 49.7393C66.8784 48.9422 66.8459 48.1325 66.6752 47.3466C66.666 47.1006 66.5755 46.8647 66.4178 46.6757C66.8215 45.9808 67.113 45.2265 67.2814 44.4406C67.3691 44.1918 67.3778 43.9218 67.3063 43.6678C67.9974 43.1086 68.6075 42.4561 69.1191 41.7291C69.2946 41.4932 69.3893 41.207 69.3891 40.913C70.3455 40.5559 71.2538 40.0812 72.0932 39.4999L72.2262 39.4196C72.4183 39.3231 72.5835 39.1805 72.7068 39.0044C72.8301 38.8283 72.9077 38.6243 72.9327 38.4108C72.9632 38.1185 72.891 37.8246 72.7283 37.5798C72.4538 37.083 72.0707 36.6545 71.6077 36.3261C71.1447 35.9978 70.6136 35.7781 70.0539 35.6834V35.6834ZM91.0748 52.6306C91.0435 52.4979 90.989 52.3717 90.914 52.2579C91.4836 51.5434 91.8909 50.7136 92.1079 49.8259C92.3249 48.9383 92.3463 48.0141 92.1706 47.1174V47.1174C92.1706 47.1174 92.1706 47.1174 92.0906 47.091C91.99 46.9168 91.8511 46.7677 91.6846 46.6549C91.9124 45.7713 91.9498 44.8494 91.7943 43.9502C91.6388 43.0511 91.294 42.1952 90.7826 41.4395C90.7202 41.4137 90.656 41.3925 90.5906 41.376C90.4281 41.2695 90.2405 41.2074 90.0466 41.196C89.9332 40.2029 89.6178 39.2435 89.12 38.3767C88.6222 37.51 87.9524 36.7541 87.1518 36.1557V36.1557C86.8797 36.0371 86.5762 36.0116 86.2882 36.0831C85.4735 34.0384 82.1814 32.3992 81.3708 32.1666L81.2268 32.1189C80.9809 32.0832 80.7299 32.117 80.5023 32.2165C80.0382 32.4548 79.6414 32.8057 79.3481 33.2371C79.092 33.572 78.9126 33.9591 78.8224 34.3709C78.7321 34.7827 78.7334 35.2093 78.826 35.6206C78.1893 35.6965 77.5814 35.9292 77.0567 36.2978C76.5321 36.6664 76.107 37.1594 75.8197 37.7326C75.6594 37.9824 75.5922 38.2807 75.6298 38.5751C75.6569 38.7895 75.7359 38.9941 75.8598 39.1711C75.9837 39.3482 76.1488 39.4924 76.3409 39.5914L76.4849 39.639C77.3325 40.2079 78.2463 40.6711 79.2061 41.0184C79.2374 41.3409 79.3837 41.6414 79.6184 41.8648V41.8648C80.118 42.5698 80.7173 43.1985 81.3974 43.7314C81.333 43.9822 81.345 44.2465 81.432 44.4904C81.519 44.7343 81.6769 44.9465 81.8855 45.0999C81.6892 44.9615 81.537 44.7695 81.4472 44.5467C81.6085 45.3174 81.8985 46.0554 82.305 46.7297C82.1427 46.9532 82.0539 47.2216 82.0509 47.4978V47.4978C81.9059 48.2694 81.8843 49.0592 81.987 49.8376C81.7365 49.9818 81.5389 50.2027 81.4235 50.4677V50.4677C80.934 51.1813 80.5749 51.9761 80.3631 52.8151C80.3225 52.7953 80.2794 52.7811 80.2351 52.7727C79.9766 52.8096 79.7373 52.9299 79.5537 53.1154L79.5272 53.1954C78.4864 53.8906 77.6248 54.8221 77.0126 55.9138C76.7841 56.4711 76.7266 57.0839 76.8476 57.674C76.9685 58.264 77.2624 58.8048 77.6917 59.2272C77.8612 59.4199 78.0452 59.5994 78.2419 59.7642C78.5527 60.3853 79.0377 60.9023 79.6376 61.2521C80.2375 61.6019 80.9264 61.7692 81.62 61.7337C81.78 61.7866 81.977 61.7275 82.1582 61.7164C84.4268 61.2916 86.4481 60.0176 87.8099 58.154V58.154C87.8649 58.0427 87.9041 57.9242 87.9263 57.802L87.9792 57.6421L87.952 57.4023C88.8021 56.9141 89.5423 56.2558 90.1264 55.4686C90.7106 54.6814 91.1261 53.7822 91.347 52.8271V52.8271L91.4105 52.6351L91.0748 52.6306ZM82.0299 45.3074C82.0299 45.3074 81.9339 45.2757 81.8859 45.2598C81.8379 45.2439 81.9819 45.2915 82.0299 45.3074ZM82.4424 48.5681C82.3716 48.5277 82.3113 48.4712 82.2662 48.4033C82.3113 48.4712 82.3716 48.5277 82.4424 48.5681V48.5681Z" fill="#C68D1A"/>
<path d="M61.6815 47.4701C61.6815 47.4701 59.6149 47.9759 58.6577 46.5764C57.7005 45.177 58.9516 42.3069 59.0263 42.3494C59.502 44.2392 60.411 45.9924 61.6815 47.4701V47.4701Z" fill="#EFB135"/>
<path d="M61.6411 43.8355C61.8972 45.0099 61.9181 46.2235 61.7026 47.406C60.4321 45.9283 59.5231 44.1751 59.0474 42.2853C59.579 42.2875 60.1002 42.4326 60.5564 42.7053C61.0127 42.978 61.3873 43.3684 61.6411 43.8355Z" fill="#FCC34F"/>
<path d="M61.9539 47.4534C63.0255 47.657 64.1343 47.4387 65.0488 46.8441C65.7197 46.0952 66.1664 45.1725 66.3378 44.1818C64.6712 44.9662 63.1801 46.079 61.9539 47.4534V47.4534Z" fill="#FCC34F"/>
<path d="M63.1872 44.2047C62.7233 44.6097 62.3686 45.1248 62.1557 45.7027C61.9428 46.2805 61.8787 46.9026 61.969 47.5118C63.1953 46.1373 64.6864 45.0245 66.353 44.2401C65.8593 44.0053 65.3206 43.8806 64.774 43.8745C64.2274 43.8684 63.686 43.9811 63.1872 44.2047V44.2047Z" fill="#EFB135"/>
<path d="M62.6362 43.0284C62.6362 43.0284 60.4565 43.0174 60.1491 41.4246C59.8416 39.8318 62.2502 37.3801 62.3036 37.4333C61.9219 39.2952 62.0366 41.2248 62.6362 43.0284V43.0284Z" fill="#EFB135"/>
<path d="M64.1527 39.518C63.8444 40.7637 63.3321 41.9499 62.6365 43.0283C62.0369 41.2247 61.9222 39.2951 62.3039 37.4331C62.3039 37.4331 64.2558 38.0255 64.1527 39.518Z" fill="#FCC34F"/>
<path d="M62.9295 43.1073C63.9223 43.5803 65.0611 43.6446 66.1009 43.2865C67.0508 42.7195 67.8671 41.9542 68.494 41.0427C66.534 41.405 64.6515 42.1035 62.9295 43.1073Z" fill="#FCC34F"/>
<path d="M65.4805 40.2241C64.8677 40.485 64.3207 40.8792 63.8794 41.3781C63.438 41.8769 63.1134 42.4678 62.929 43.1078C64.651 42.1041 66.5335 41.4056 68.4935 41.0433C68.0946 40.6738 67.6122 40.4064 67.0876 40.2637C66.5629 40.1211 66.0116 40.1075 65.4805 40.2241V40.2241Z" fill="#EFB135"/>
<path d="M65.4463 38.9877C65.4463 38.9877 63.372 38.4435 63.7999 36.8277C64.2279 35.2119 67.7891 33.4077 67.8373 33.4769C66.5492 35.0593 65.722 36.966 65.4463 38.9877V38.9877Z" fill="#EFB135"/>
<path d="M68.5616 35.9534C67.6554 37.0926 66.6083 38.1122 65.4455 38.9877C65.7211 36.966 66.5483 35.0593 67.8364 33.4769C68.0487 33.5898 68.2363 33.744 68.3881 33.9304C68.54 34.1168 68.653 34.3317 68.7206 34.5625C68.7881 34.7932 68.8089 35.0351 68.7816 35.274C68.7543 35.5129 68.6795 35.7439 68.5616 35.9534Z" fill="#FCC34F"/>
<path d="M65.697 39.1414C66.0844 39.5074 66.5474 39.7838 67.0534 39.9511C67.5593 40.1185 68.0959 40.1727 68.6251 40.11C69.8438 39.7704 70.9934 39.2194 72.0215 38.4821C69.8917 38.367 67.7572 38.5895 65.697 39.1414V39.1414Z" fill="#FCC34F"/>
<path d="M69.5284 36.948C68.0241 37.1813 66.6592 37.9627 65.6963 39.1418C67.7565 38.5899 69.891 38.3673 72.0208 38.4824C71.8024 38.0098 71.4495 37.6121 71.0061 37.3392C70.5628 37.0662 70.0487 36.9302 69.5284 36.948V36.948Z" fill="#EFB135"/>
<path d="M69.9424 59.2023C69.7333 59.7195 69.3489 60.1467 68.8564 60.4089C68.364 60.6712 67.795 60.7519 67.2491 60.6367C65.4439 60.2536 63.8114 59.2963 62.5955 57.9081C64.9651 58.7081 67.4422 59.1445 69.9424 59.2023V59.2023Z" fill="#EFB135"/>
<path d="M65.6796 57.0641C67.1776 57.6117 68.608 58.3291 69.9428 59.2021C67.4425 59.1443 64.9654 58.7079 62.5959 57.9079C62.9889 57.5065 63.4816 57.2168 64.0235 57.0685C64.5654 56.9202 65.137 56.9187 65.6796 57.0641V57.0641Z" fill="#FCC34F"/>
<path d="M70.1389 58.9301C70.1389 58.9301 71.6073 57.8182 71.0501 56.5511C70.4043 55.6001 69.5742 54.7883 68.6091 54.1638C68.6308 55.8698 69.1637 57.5301 70.1389 58.9301Z" fill="#FCC34F"/>
<path d="M66.8983 56.225C67.0669 57.7009 70.0812 59.0529 70.0972 59.0582C69.1122 57.6175 68.593 55.9092 68.6097 54.1639C68.6097 54.1639 66.7033 54.8291 66.8983 56.225Z" fill="#EFB135"/>
<path d="M65.3413 55.9403C64.9463 56.3543 64.4393 56.6445 63.8822 56.7754C63.3252 56.9063 62.7421 56.8723 62.204 56.6776C61.4858 56.3114 60.8472 55.8065 60.3253 55.1921C59.8034 54.5777 59.4085 53.8659 59.1633 53.0979C61.0474 54.3873 63.1363 55.3483 65.3413 55.9403V55.9403Z" fill="#EFB135"/>
<path d="M62.4242 53.0057C63.5397 53.8304 64.5232 54.8201 65.3408 55.9408C63.1433 55.3378 61.0635 54.3678 59.1894 53.0717C59.6845 52.8044 60.2362 52.6589 60.7988 52.6474C61.3613 52.6359 61.9185 52.7588 62.4242 53.0057V53.0057Z" fill="#FCC34F"/>
<path d="M65.586 55.791C65.586 55.791 67.4604 55.1152 67.5427 53.8466C67.6251 52.578 66.4439 51.1045 66.4705 51.0778C65.7254 52.5301 65.4181 54.1674 65.586 55.791V55.791Z" fill="#FCC34F"/>
<path d="M63.9103 52.5383C63.4445 53.9463 65.5487 55.8494 65.5859 55.7907C65.418 54.1671 65.7253 52.5297 66.4704 51.0775C66.4704 51.0775 64.2749 51.1678 63.9103 52.5383Z" fill="#EFB135"/>
<path d="M62.5766 51.9021C62.08 52.1731 61.5206 52.3076 60.9551 52.292C60.3896 52.2765 59.8384 52.1114 59.3574 51.8136C57.7719 50.6501 57.8984 47.692 57.9784 47.7185C59.2234 49.3998 60.7855 50.8211 62.5766 51.9021V51.9021Z" fill="#EFB135"/>
<path d="M61.071 48.4577C61.7917 49.4973 62.3031 50.6673 62.5765 51.9024C60.7854 50.8213 59.2232 49.4 57.9782 47.7187C58.5147 47.5779 59.0777 47.5716 59.6172 47.7005C60.1568 47.8294 60.6561 48.0895 61.071 48.4577Z" fill="#FCC34F"/>
<path d="M62.8853 51.8269C62.8853 51.8269 64.9313 51.6516 65.5469 50.4884C65.8755 49.5718 65.9325 48.5797 65.7109 47.6314C64.4458 48.7827 63.4766 50.2218 62.8853 51.8269Z" fill="#FCC34F"/>
<path d="M62.6755 48.3843C61.6551 49.5911 62.8381 51.8641 62.886 51.8267C63.4773 50.2216 64.4465 48.7825 65.7116 47.6312C65.7116 47.6312 63.6428 47.231 62.6755 48.3843Z" fill="#EFB135"/>
<path d="M87.2466 47.3527C87.2466 47.3527 89.3156 47.8596 90.261 46.4505C91.2064 45.0413 89.9047 42.1611 89.8835 42.2251C89.4125 44.1151 88.5099 45.8702 87.2466 47.3527Z" fill="#EFB135"/>
<path d="M87.2543 43.734C87.0361 44.9093 87.0406 46.1151 87.2678 47.2887C88.5312 45.8062 89.4337 44.051 89.9048 42.1611C89.9048 42.1611 87.7947 42.3151 87.2543 43.734Z" fill="#FCC34F"/>
<path d="M86.9426 47.3586C85.8758 47.5812 84.7642 47.3731 83.8502 46.7795C82.8143 45.8865 82.5918 44.1443 82.5278 44.1231C84.202 44.8937 85.7036 45.9942 86.9426 47.3586V47.3586Z" fill="#FCC34F"/>
<path d="M85.7098 44.0573C87.1881 44.9546 87.0019 47.3959 86.9432 47.3587C85.7041 45.9943 84.2026 44.8939 82.5283 44.1233C83.0222 43.8824 83.5625 43.7518 84.1118 43.7404C84.6612 43.729 85.2064 43.8372 85.7098 44.0573V44.0573Z" fill="#EFB135"/>
<path d="M86.2501 42.9581C86.2501 42.9581 88.4244 42.9318 88.7352 41.3482C89.046 39.7647 86.5249 37.2976 86.5037 37.3616C86.9259 39.2158 86.8383 41.1497 86.2501 42.9581V42.9581Z" fill="#EFB135"/>
<path d="M84.7341 39.4389C85.0269 40.6926 85.5403 41.8843 86.2505 42.9582C86.8473 41.156 86.946 39.2259 86.5361 37.3722C86.5361 37.3722 84.6241 37.9469 84.7341 39.4389Z" fill="#FCC34F"/>
<path d="M85.9683 43.0067C84.9788 43.4927 83.8373 43.5682 82.7924 43.2165C81.8339 42.6702 81.0164 41.9074 80.405 40.989C82.3604 41.3414 84.2416 42.0236 85.9683 43.0067Z" fill="#FCC34F"/>
<path d="M83.382 40.1456C84.0011 40.4007 84.5557 40.7902 85.0058 41.286C85.4558 41.7818 85.79 42.3714 85.9841 43.0122C84.2574 42.0291 82.3762 41.3469 80.4208 40.9945C80.8114 40.6278 81.2838 40.3596 81.7988 40.212C82.3138 40.0643 82.8565 40.0416 83.382 40.1456Z" fill="#EFB135"/>
<path d="M83.4169 38.9142C83.4169 38.9142 85.4834 38.3552 85.0587 36.7414C84.6339 35.1275 81.0325 33.3504 80.99 33.4251C82.2852 34.9988 83.1245 36.8972 83.4169 38.9142V38.9142Z" fill="#EFB135"/>
<path d="M80.276 35.905C81.195 37.0335 82.2499 38.0442 83.4166 38.9142C83.1242 36.8972 82.2849 34.9988 80.9898 33.4251C80.7797 33.5407 80.5944 33.6966 80.4447 33.8839C80.295 34.0712 80.1838 34.2863 80.1175 34.5167C80.0511 34.7472 80.031 34.9884 80.0582 35.2267C80.0854 35.4649 80.1594 35.6955 80.276 35.905V35.905Z" fill="#FCC34F"/>
<path d="M83.1723 39.0638C82.786 39.434 82.3225 39.714 81.8152 39.8838C81.3079 40.0536 80.7692 40.1089 80.238 40.0459C79.0185 39.7145 77.8627 39.1822 76.8182 38.4709C78.9543 38.3287 81.0994 38.5289 83.1723 39.0638Z" fill="#FCC34F"/>
<path d="M79.3191 36.9199C80.8258 37.1293 82.1999 37.894 83.1719 39.0641C81.099 38.5291 78.9539 38.329 76.8179 38.4711C77.0343 37.994 77.3876 37.5918 77.8329 37.3156C78.2782 37.0394 78.7955 36.9017 79.3191 36.9199V36.9199Z" fill="#EFB135"/>
<path d="M79.0824 59.1546C79.2931 59.6729 79.68 60.1003 80.1749 60.3614C80.6697 60.6225 81.2409 60.7007 81.7877 60.582C83.5905 60.1911 85.2153 59.2194 86.4126 57.816C84.0514 58.632 81.5796 59.0834 79.0824 59.1546V59.1546Z" fill="#EFB135"/>
<path d="M83.3304 56.9922C81.8352 57.5445 80.4067 58.2628 79.0718 59.1337C81.569 59.0625 84.0408 58.6111 86.402 57.7952C86.0059 57.4029 85.5133 57.1222 84.974 56.9812C84.4347 56.8402 83.8678 56.844 83.3304 56.9922V56.9922Z" fill="#FCC34F"/>
<path d="M78.9174 58.9578C78.9174 58.9578 77.4973 57.8845 77.9313 56.5725C78.5436 55.6089 79.3383 54.7743 80.2706 54.1155C80.3228 55.8297 79.8507 57.519 78.9174 58.9578Z" fill="#FCC34F"/>
<path d="M82.1453 56.1736C81.9728 57.6609 78.9649 59.0269 78.9487 58.9683C79.9059 57.5317 80.3987 55.8357 80.3605 54.1099C80.3605 54.1099 82.2913 54.7663 82.1453 56.1736Z" fill="#EFB135"/>
<path d="M83.6636 55.877C84.0666 56.2763 84.5751 56.5524 85.1295 56.6729C85.6839 56.7934 86.2611 56.7533 86.7935 56.5573C88.2127 55.7714 89.2775 54.4723 89.7697 52.9265C87.9102 54.2388 85.8472 55.2357 83.6636 55.877Z" fill="#EFB135"/>
<path d="M86.5613 52.9124C85.4545 53.7523 84.478 54.7513 83.6636 55.8769C85.863 55.2453 87.9425 54.2537 89.8177 52.9422C89.3165 52.6782 88.7595 52.5378 88.1931 52.5326C87.6267 52.5274 87.0672 52.6576 86.5613 52.9124V52.9124Z" fill="#FCC34F"/>
<path d="M83.4125 55.7237C83.4125 55.7237 81.5245 55.0992 81.4415 53.7936C81.5412 52.7864 81.9027 51.8228 82.4903 50.9986C83.2443 52.4527 83.5644 54.0928 83.4125 55.7237Z" fill="#FCC34F"/>
<path d="M85.1428 52.4791C85.6363 53.8849 83.5303 55.7977 83.4929 55.7498C83.6447 54.1189 83.3246 52.4788 82.5707 51.0247C82.5707 51.0247 84.6174 51.1159 85.1428 52.4791Z" fill="#EFB135"/>
<path d="M86.3565 51.8687C86.8587 52.1345 87.422 52.2635 87.9898 52.2425C88.5577 52.2216 89.11 52.0514 89.5912 51.7493C90.1052 51.2088 90.4933 50.5612 90.7275 49.853C90.9618 49.1448 91.0364 48.3936 90.9461 47.6532C89.7048 49.3433 88.1459 50.7752 86.3565 51.8687V51.8687Z" fill="#EFB135"/>
<path d="M87.8727 48.3584C87.1725 49.4087 86.6662 50.5759 86.3777 51.8047C88.1671 50.7112 89.726 49.2794 90.9673 47.5892C90.4281 47.4521 89.8633 47.4505 89.3233 47.5847C88.7833 47.7189 88.2849 47.9847 87.8727 48.3584Z" fill="#FCC34F"/>
<path d="M86.0685 51.7733C85.5532 51.754 85.0478 51.627 84.5846 51.4004C84.1215 51.1738 83.7109 50.8527 83.3794 50.4578C83.0433 49.5484 82.9872 48.5591 83.2184 47.6176C84.4866 48.7553 85.4639 50.1803 86.0685 51.7733V51.7733Z" fill="#FCC34F"/>
<path d="M86.2627 48.2875C87.2887 49.479 86.1322 51.7946 86.0682 51.7734C85.4712 50.1612 84.4933 48.7172 83.218 47.5644C83.218 47.5644 85.2902 47.1493 86.2627 48.2875Z" fill="#EFB135"/>
<path d="M109.025 103.63L40.3328 103.902L40.3778 115.294L109.07 115.022L109.025 103.63Z" fill="#846C5D"/>
<path d="M31.8684 135.157L117.751 134.817L117.651 109.605L31.7686 109.945L31.8684 135.157Z" fill="#846C5D"/>
<path d="M46.15 128.334L103.433 128.107L103.379 114.372L46.0956 114.599L46.15 128.334Z" fill="#FCC34F"/>
</svg>
